<?xml version="1.0" encoding="utf-8"?>
<!-- Generator: Adobe Illustrator 16.0.4, SVG Export Plug-In . SVG Version: 6.00 Build 0)  -->
<!DOCTYPE svg PUBLIC "-//W3C//DTD SVG 1.1//EN" "http://www.w3.org/Graphics/SVG/1.1/DTD/svg11.dtd">
<svg version="1.1" id="Layer_1" xmlns="http://www.w3.org/2000/svg" xmlns:xlink="http://www.w3.org/1999/xlink" x="0px" y="0px"
	 width="160.258px" height="55.426px" viewBox="0 0 160.258 55.426" enable-background="new 0 0 160.258 55.426"
	 xml:space="preserve">
<path fill="none" stroke="#006FBA" stroke-width="0.808" stroke-linecap="round" stroke-miterlimit="10" d="M93.18,40.285h66.674
	 M9.352,40.285h65.37"/>
<g>
	<polygon fill="#006FBA" points="9.121,55.234 10.484,55.234 10.484,50.914 14.831,50.914 14.831,49.678 10.484,49.678 
		10.484,46.898 15.377,46.898 15.377,45.662 9.121,45.662 	"/>
	<path fill="#006FBA" d="M24.914,51.528c0.005,0.949-0.207,1.646-0.631,2.073c-0.392,0.395-0.977,0.586-1.787,0.586
		c-0.803,0-1.383-0.191-1.774-0.584c-0.424-0.427-0.637-1.125-0.632-2.076v-5.865h-1.364v6.057c0,2.321,1.41,3.707,3.771,3.707
		c2.368,0,3.782-1.386,3.782-3.707v-6.057h-1.364L24.914,51.528z"/>
	<polygon fill="#006FBA" points="31.752,50.914 36.809,50.914 36.809,49.678 31.752,49.678 31.752,46.898 37.153,46.898 
		37.153,45.662 30.388,45.662 30.388,55.234 37.215,55.234 37.215,53.998 31.752,53.998 	"/>
	<polygon fill="#006FBA" points="42.158,45.662 40.793,45.662 40.793,55.234 47.239,55.234 47.239,53.998 42.158,53.998 	"/>
	<rect x="50.55" y="45.662" fill="#006FBA" width="1.364" height="9.572"/>
	<polygon fill="#006FBA" points="62.442,52.819 57.512,45.662 56.166,45.662 56.166,55.234 57.529,55.234 57.529,48.076 
		62.459,55.234 63.806,55.234 63.806,45.662 62.442,45.662 	"/>
	<path fill="#006FBA" d="M71.894,51.359h3.085c-0.032,0.82-0.311,1.535-0.797,2.032c-0.51,0.521-1.232,0.796-2.088,0.796
		c-2.338,0-3.168-2.014-3.168-3.738c0-1.726,0.83-3.74,3.168-3.74c1.511,0,2.565,1.064,2.674,2.051l0.025,0.223h1.382l-0.048-0.291
		c-0.331-1.986-1.876-3.221-4.033-3.221c-3.13,0-4.532,2.5-4.532,4.979c0,2.478,1.401,4.977,4.532,4.977
		c1.254,0,2.299-0.478,2.965-1.334l0.079,1.143h1.106v-5.113h-4.35V51.359z"/>
	<path fill="#006FBA" d="M91.272,49.95l-2.211-0.545c-0.816-0.196-1.181-0.549-1.181-1.142c0-1.353,1.268-1.555,2.023-1.555
		c0.996,0,2.178,0.482,2.229,1.844l0.009,0.24h1.354l0.002-0.248c0.005-0.806-0.272-1.514-0.804-2.048
		c-0.648-0.652-1.669-1.026-2.801-1.026c-2.664,0-3.375,1.763-3.375,2.805c0,1.674,1.275,2.188,2.235,2.429l2.021,0.496
		c1.144,0.277,1.676,0.721,1.676,1.396c0,1.159-1.319,1.592-2.151,1.592c-1.028,0-1.772-0.228-2.212-0.677
		c-0.345-0.352-0.512-0.858-0.498-1.506l0.006-0.255h-1.359l-0.011,0.238c-0.045,0.982,0.218,1.779,0.781,2.369
		c0.668,0.699,1.736,1.068,3.09,1.068c3.45,0,3.719-2.175,3.719-2.842C93.814,50.853,92.459,50.268,91.272,49.95z"/>
	<polygon fill="#006FBA" points="100.779,50.052 97.93,45.662 96.298,45.662 100.086,51.326 100.086,55.234 101.449,55.234 
		101.449,51.326 105.252,45.662 103.616,45.662 	"/>
	<path fill="#006FBA" d="M112.782,49.95l-2.212-0.545c-0.815-0.197-1.18-0.549-1.18-1.142c0-1.353,1.268-1.555,2.023-1.555
		c0.996,0,2.178,0.482,2.229,1.844l0.009,0.24h1.353l0.002-0.248c0.005-0.806-0.272-1.514-0.804-2.048
		c-0.648-0.652-1.669-1.026-2.8-1.026c-2.666,0-3.377,1.763-3.377,2.805c0,1.674,1.275,2.188,2.235,2.429l2.022,0.496
		c1.144,0.277,1.676,0.721,1.676,1.396c0,1.159-1.319,1.592-2.15,1.592c-1.028,0-1.772-0.228-2.212-0.677
		c-0.345-0.352-0.513-0.858-0.499-1.506l0.005-0.255h-1.356l-0.012,0.238c-0.045,0.981,0.218,1.778,0.78,2.368
		c0.668,0.7,1.736,1.069,3.091,1.069c3.449,0,3.718-2.175,3.718-2.842C115.323,50.854,113.968,50.269,112.782,49.95z"/>
	<polygon fill="#006FBA" points="118.087,46.898 121.251,46.898 121.251,55.234 122.616,55.234 122.616,46.898 125.779,46.898 
		125.779,45.662 118.087,45.662 	"/>
	<polygon fill="#006FBA" points="130.366,50.914 135.421,50.914 135.421,49.678 130.366,49.678 130.366,46.898 135.766,46.898 
		135.766,45.662 129,45.662 129,55.234 135.828,55.234 135.828,53.998 130.366,53.998 	"/>
	<polygon fill="#006FBA" points="144.039,53.185 141.07,45.662 139.38,45.662 139.38,55.234 140.745,55.234 140.745,48.388 
		143.463,55.234 144.615,55.234 147.32,48.398 147.32,55.234 148.686,55.234 148.686,45.662 146.996,45.662 	"/>
	<path fill="#006FBA" d="M157.452,49.95l-2.212-0.545c-0.815-0.197-1.18-0.549-1.18-1.142c0-1.353,1.268-1.555,2.023-1.555
		c0.997,0,2.179,0.482,2.229,1.843l0.009,0.241h1.353l0.002-0.248c0.005-0.806-0.272-1.514-0.804-2.048
		c-0.648-0.652-1.669-1.026-2.8-1.026c-2.666,0-3.377,1.763-3.377,2.805c0,1.674,1.276,2.188,2.237,2.429l2.022,0.496
		c1.143,0.276,1.675,0.721,1.675,1.396c0,1.159-1.319,1.592-2.151,1.592c-1.027,0-1.771-0.228-2.21-0.677
		c-0.345-0.352-0.513-0.858-0.499-1.506l0.005-0.255h-1.359l-0.011,0.238c-0.045,0.981,0.218,1.779,0.781,2.369
		c0.668,0.699,1.736,1.068,3.09,1.068c3.451,0,3.72-2.175,3.72-2.842C159.993,50.854,158.638,50.269,157.452,49.95z"/>
</g>
<g>
	<path fill="none" d="M146.523,14.529c-2.957,0-4.926,2.119-5.42,5.221h10.395C151.35,16.894,149.33,14.529,146.523,14.529z"/>
	<path fill="none" d="M59.447,24.578C57.576,25.021,56,25.808,56,27.828c0,2.068,1.625,2.904,3.497,2.904
		c3.989,0,5.319-2.264,5.123-7.534C63.438,23.937,61.269,24.085,59.447,24.578z"/>
	<polygon fill="#006FBA" points="33.295,25.71 33.197,25.71 28.025,0 19.406,0 14.234,25.71 14.136,25.71 9.161,0 0,0 9.506,35.168 
		18.815,35.168 23.642,10.934 23.741,10.934 28.566,35.168 37.729,35.168 47.432,0 38.271,0 	"/>
	<path fill="#006FBA" d="M72.696,17.436c0-7.241-5.86-8.571-11.918-8.571c-2.906,0-5.861,0.494-8.126,1.774
		c-2.266,1.33-3.842,3.496-3.99,6.846h7.832c0.394-2.167,1.871-3.202,4.187-3.202c1.724,0,4.038,0.739,4.038,2.66
		c0,1.576-0.788,2.069-2.216,2.363c-5.812,1.183-14.875,0.542-14.875,8.866c0,5.271,3.842,7.732,8.718,7.732
		c3.054,0,6.255-0.887,8.423-3.152c0.098,0.838,0.196,1.627,0.492,2.414h8.422c-0.985-2.02-0.985-4.383-0.985-6.549V17.436H72.696z
		 M59.496,30.732c-1.871,0-3.497-0.836-3.497-2.904c0-2.02,1.577-2.808,3.448-3.25c1.822-0.493,3.99-0.641,5.171-1.379
		C64.815,28.469,63.485,30.732,59.496,30.732z"/>
	<path fill="#006FBA" d="M88.357,26.251h-0.099L83.432,9.604h-8.866l6.601,17.781c0.492,1.379,2.118,5.32,2.118,6.699
		c0,1.771-1.428,2.855-3.35,2.855H77.03v6.797h3.939c5.664,0,8.67-0.689,10.688-6.305l10.097-27.828h-8.57L88.357,26.251z"/>
	<path fill="#006FBA" d="M120.419,8.865c-3.053,0-6.5,1.626-8.028,4.237h-0.098V9.604h-8.126v25.562h8.373V21.228
		c0-2.807,1.379-5.467,4.53-5.467c4.582,0,4.188,3.546,4.188,7.043v12.362h8.373v-16.4C129.63,15.072,128.941,8.865,120.419,8.865z"
		/>
	<path fill="#006FBA" d="M146.523,8.866c-7.537,0-13.791,5.614-13.791,13.446c0,8.571,5.664,13.594,13.986,13.594
		c5.713,0,11.18-2.561,12.708-8.471h-7.831c-0.789,1.872-2.759,2.807-4.779,2.807c-3.545,0-5.564-2.314-5.713-5.812h18.767
		C160.266,15.761,155.684,8.866,146.523,8.866z M141.104,19.75c0.494-3.103,2.465-5.221,5.42-5.221c2.806,0,4.826,2.364,4.974,5.221
		H141.104z"/>
</g>
</svg>
